# xmcd
#
# Track frame offsets: 
#        150
#        12011
#        22012
#        32885
#        44612
#        55646
#        67634
#        79735
#        92068
#        107356
#        119027
#        133692
#        147068
#        160932
#        172563
#        186023
#        199058
#        211685
#
# Disc length: 2961 seconds
#
# Revision: 11
# Processed by: cddbd v1.5.2PL0 Copyright (c) Steve Scherf et al.
# Submitted via: ExactAudioCopyFreeDBPlugin 1.0
#
DISCID=e20b8f12
DTITLE=Johnny "Guitar" Watson - 1999 - The Very Best Of
DYEAR=1999
DGENRE=Blues
TTITLE0=Space Guitar
TTITLE1=Motor Head Baby
TTITLE2=Highway 60
TTITLE3=Motorhead Baby
TTITLE4=I Got Eyes
TTITLE5=You Can't Take It With You
TTITLE6=Hot Little Mama
TTITLE7=Too Tired
TTITLE8=Three Hours Past Midnight
TTITLE9=The Eagle Is Back
TTITLE10=Cuttin' In
TTITLE11=Broke And Lonely
TTITLE12=That's The Chance You've Got To Take
TTITLE13=Cold, Cold Heart
TTITLE14=In The Evening
TTITLE15=Gangster Of Love
TTITLE16=Those Lonely, Lonely Nights
TTITLE17=The Late Freight Twist
EXTD=nCOPYRIGHT =1999LABEL =Rhino Entertainment Company\nID =R27570
EXTD=2\nUPC =08122-75702-24\\
EXTT0=
EXTT1=
EXTT2=
EXTT3=
EXTT4=
EXTT5=
EXTT6=
EXTT7=
EXTT8=
EXTT9=
EXTT10=
EXTT11=
EXTT12=
EXTT13=
EXTT14=
EXTT15=
EXTT16=
EXTT17=
PLAYORDER=
